<svg xmlns:xlink="http://www.w3.org/1999/xlink" xmlns="http://www.w3.org/2000/svg" viewBox="0 0 1362 1362" height="1362" width="1362">
    <path d="M 178.773346 0.984009 C 166.997345 1.562134 156.079987 7.306885 148.934662 16.686646 C 53.185349 137.025391 0.961334 286.26001 0.961334 440.046631 C 0.961334 593.84668 53.164001 743.139954 148.934662 863.486633 C 155.393066 872.221008 165.127991 877.959961 175.898651 879.37738 C 186.669342 880.794678 197.559998 877.768005 206.054657 871.00238 C 214.554657 864.231628 219.940002 854.294434 220.966675 843.481018 C 221.997925 832.66333 218.581207 821.893066 211.51358 813.642395 C 127.00293 707.445068 81.044266 575.775696 81.044266 440.042358 C 81.044266 304.335693 127.017593 172.482422 211.51358 66.295776 C 218.081329 58.2854 221.289581 48.035767 220.45108 37.707764 C 219.617737 27.379639 214.805206 17.781006 207.029724 10.931763 C 199.258942 4.077637 189.128387 0.515015 178.779083 0.983887 Z M 1181.82666 0.984009 C 1171.63916 0.890259 1161.799927 4.687012 1154.31604 11.598511 C 1146.831665 18.515137 1142.269043 28.025146 1141.560791 38.191895 C 1140.852539 48.358521 1144.050415 58.410522 1150.50354 66.295898 C 1234.998169 172.489258 1281.050171 304.335815 1281.050171 440.04248 C 1281.050171 575.762512 1235.01416 707.442566 1150.50354 813.642517 C 1142.201294 824.866516 1140.352417 839.601257 1145.612793 852.527832 C 1150.878418 865.454895 1162.492798 874.71051 1176.268799 876.943848 C 1190.0448 879.183411 1203.992798 874.084534 1213.075439 863.485168 C 1308.846191 743.141174 1361.048828 593.845215 1361.048828 440.045166 C 1361.048828 286.258545 1308.830078 137.018555 1213.075439 16.685181 C 1205.622437 6.930054 1194.102173 1.143921 1181.824829 0.982544 Z M 317.533325 92.234619 C 305.804108 92.495117 294.778687 97.890869 287.38266 107 C 208.601349 200.098633 165.194672 318.093384 165.194672 440.053345 C 165.194672 562.022644 208.590668 680.080017 287.38266 773.17334 C 294.028534 781.912903 303.981323 787.533386 314.898682 788.714661 C 325.815338 789.896973 336.737335 786.542786 345.101318 779.433411 C 353.471069 772.318909 358.549316 762.084167 359.137329 751.11615 C 359.731079 740.152527 355.788422 729.428162 348.241455 721.454834 C 281.657471 642.777527 245.194794 543.12146 245.194794 440.05481 C 245.194794 336.992188 281.668121 237.081421 348.241455 158.414795 C 355.001862 150.607422 358.481079 140.482788 357.949738 130.164063 C 357.4133 119.846436 352.908112 110.137451 345.376801 103.070801 C 337.840424 95.997803 327.866119 92.117676 317.532806 92.242676 Z M 1043 92.234619 L 1043.005249 92.234619 C 1032.807373 92.411743 1023.067871 96.474243 1015.765259 103.599243 C 1008.468262 110.718994 1004.16626 120.359131 1003.739136 130.547241 C 1003.312134 140.735229 1006.796509 150.697876 1013.473633 158.407227 C 1080.046997 237.084473 1116.520264 336.980591 1116.520264 440.047241 C 1116.520264 543.115173 1080.056274 642.780518 1013.473633 721.447205 C 1004.234009 732.374268 1001.525757 747.400574 1006.369507 760.86322 C 1011.213257 774.327209 1022.874878 784.185852 1036.953491 786.723206 C 1051.036133 789.259583 1065.40686 784.092957 1074.646851 773.165833 C 1153.438843 680.061829 1196.60022 562.005859 1196.60022 440.045898 C 1196.60022 318.087158 1153.428101 200.099243 1074.646851 106.992554 C 1066.917603 97.482178 1055.256104 92.039185 1043.006836 92.227173 Z M 893.706726 191.922607 L 893.711914 191.922607 C 892.404602 191.906982 891.102539 191.959106 889.800354 192.07373 C 879.607727 192.933105 870.128418 197.66748 863.321777 205.302856 C 856.509216 212.933105 852.884277 222.890869 853.191467 233.114868 C 853.493591 243.338867 857.707092 253.062866 864.962219 260.276245 C 911.842285 308.328247 938.164917 372.90686 938.164917 440.036255 C 938.164917 507.197571 911.878296 571.505554 864.962219 619.56958 C 857.545593 627.16333 853.457092 637.386902 853.587341 648.001526 C 853.717529 658.610901 858.056152 668.736267 865.649902 676.141602 C 873.248779 683.55304 883.477844 687.641602 894.087219 687.506104 C 904.696533 687.370667 914.816528 683.026917 922.223267 675.427979 C 983.701904 612.44928 1018.239136 528.041321 1018.239136 440.04126 C 1018.239136 352.067993 983.655151 267.387939 922.223267 204.414673 C 914.801392 196.565674 904.515198 192.055298 893.707214 191.914673 Z M 466.906677 192.07373 L 466.911865 192.07373 C 456.510803 192.464355 446.671875 196.891479 439.49054 204.41748 C 378.058563 267.386719 343.787872 352.070801 343.787872 440.044067 C 343.787872 528.054749 378.323883 612.457458 439.803894 675.430725 L 439.798645 675.430725 C 446.986145 683.899597 457.372009 689.004089 468.465332 689.50946 C 479.56427 690.019836 490.372009 685.889709 498.298645 678.113586 C 506.230896 670.332336 510.569458 659.608215 510.272644 648.504211 C 509.981018 637.400146 505.085205 626.920227 496.756653 619.572266 C 449.839294 571.509583 423.866028 507.208252 423.866028 440.03894 C 423.866028 372.902954 449.876648 308.325562 496.756653 260.278931 C 504.360779 252.648682 508.569214 242.268188 508.42334 231.497559 C 508.272278 220.721558 503.782654 210.461548 495.970276 203.044189 C 488.157715 195.622314 477.678284 191.669312 466.912903 192.080688 Z M 681.053284 282.07373 C 594.266663 282.07373 523 353.256348 523 440.046997 C 523 512.86438 573.416016 574.140381 640.812012 592.153748 L 640.812012 847.233704 L 560.812012 847.233704 C 550.150574 847.186829 539.910706 851.405579 532.369324 858.947327 C 524.832947 866.488953 520.614136 876.723328 520.661072 887.389954 L 520.661072 1321.216675 C 520.69751 1331.82605 524.95282 1341.981934 532.484009 1349.456665 C 540.015198 1356.930664 550.208008 1361.102539 560.812012 1361.060669 L 801.211975 1361.060669 C 811.76416 1361.019043 821.878662 1356.810669 829.342712 1349.347168 C 836.806213 1341.883667 841.014587 1331.773804 841.050964 1321.216431 L 841.050964 887.389832 C 841.097839 876.780518 836.925842 866.587158 829.451965 859.056458 C 821.978027 851.52533 811.82135 847.270081 801.211975 847.233582 L 720.899963 847.233582 L 720.899963 592.233582 C 788.451965 574.321533 839.02533 512.978943 839.02533 440.046875 C 839.02533 353.260254 767.842712 282.073608 681.052002 282.073608 Z M 681.053284 361.838989 C 724.605286 361.838989 758.944031 396.489746 758.944031 440.041748 C 758.944031 483.593689 724.605286 518.011047 681.053284 518.011047 C 637.501282 518.011047 603.083984 483.595032 603.083984 440.041748 C 603.083984 396.488403 637.5 361.838989 681.053284 361.838989 Z M 600.662659 927.305725 L 761.049316 927.305725 L 761.049316 1140.199097 L 600.662659 1140.199097 Z M 600.662659 1220.199097 L 761.049316 1220.199097 L 761.049316 1280.980347 L 600.662659 1280.980347 Z" stroke="none" fill="#16673d" id="Path"></path>
</svg>
